<?xml version="1.0" encoding="UTF-8"?>
<svg id="_Слой_2" data-name="Слой 2" xmlns="http://www.w3.org/2000/svg" viewBox="0 0 141.58 122.29">
  <defs>
    <style>
      .cls-1 {
        fill: #22232d;
      }

      .cls-1, .cls-2, .cls-3 {
        stroke-width: 0px;
      }

      .cls-2 {
        fill: #01b9fb;
      }

      .cls-3 {
        fill: #fa8022;
      }
    </style>
  </defs>
  <polygon class="cls-1" points="4 75.41 67.01 12.4 38.89 12.4 51.29 0 87.3 0 87.3 36.1 76.03 47.37 76.03 20.65 3.95 92.73 4 75.41"/>
  <polygon class="cls-2" points="0 105.5 0 122.29 70.6 51.69 70.6 34.78 0 105.5"/>
  <polygon class="cls-3" points="95.82 34.1 58.62 71.3 75.23 71.3 112.43 34.1 95.82 34.1"/>
  <g>
    <path class="cls-1" d="M51.89,77.26h11.46c.21,0,.31.12.31.36v1.85c0,.29-.14.43-.43.43h-7.74c-.27,0-.41.11-.41.34v4.47c0,.24.11.36.34.36h5.62c.22,0,.34.11.34.34v1.92c0,.21-.11.31-.34.31h-5.65c-.21,0-.31.1-.31.29v6.7c0,.3-.18.46-.53.46h-2.57c-.18,0-.3-.04-.36-.11s-.1-.18-.1-.32v-16.99c0-.27.12-.41.36-.41Z"/>
    <path class="cls-1" d="M77.79,92.57c-.54.98-1.33,1.68-2.37,2.12s-2.28.65-3.74.65c-1.67,0-3-.26-4.01-.79-1.01-.53-1.75-1.32-2.21-2.37-.46-1.05-.7-2.34-.7-3.88v-10.6c0-.29.11-.43.34-.43h2.88c.22,0,.34.13.34.38v11.17c0,1.36.31,2.35.92,2.98s1.52.94,2.7.94c.75,0,1.41-.13,1.97-.4.56-.26.99-.69,1.3-1.29.3-.59.46-1.36.46-2.31v-11.08c0-.27.11-.41.34-.41h2.28c.21,0,.31.13.31.38v11.08c0,1.59-.27,2.87-.82,3.84Z"/>
    <path class="cls-1" d="M79.71,77.65c0-.11.03-.2.1-.28s.17-.11.31-.11h13.5c.14,0,.25.04.31.11.06.07.1.16.1.28v1.87c0,.22-.13.34-.38.34h-4.61c-.18,0-.26.08-.26.24v14.59c0,.27-.12.41-.36.41h-2.86c-.22,0-.34-.13-.34-.38v-14.56c0-.19-.09-.29-.26-.29h-4.83c-.27,0-.41-.11-.41-.34v-1.87Z"/>
    <path class="cls-1" d="M108.16,92.57c-.54.98-1.33,1.68-2.37,2.12s-2.28.65-3.74.65c-1.67,0-3-.26-4.01-.79-1.01-.53-1.75-1.32-2.21-2.37-.46-1.05-.7-2.34-.7-3.88v-10.6c0-.29.11-.43.34-.43h2.88c.22,0,.34.13.34.38v11.17c0,1.36.31,2.35.92,2.98s1.52.94,2.7.94c.75,0,1.41-.13,1.97-.4.56-.26.99-.69,1.3-1.29.3-.59.46-1.36.46-2.31v-11.08c0-.27.11-.41.34-.41h2.28c.21,0,.31.13.31.38v11.08c0,1.59-.27,2.87-.82,3.84Z"/>
    <path class="cls-1" d="M124.98,94.91c-.06.12-.17.18-.31.18h-2.93c-.24,0-.4-.13-.48-.38l-2.76-7.02c-.08-.21-.3-.31-.65-.31h-2.88c-.11,0-.19.03-.23.08-.04.06-.06.12-.06.18v6.94c0,.34-.18.5-.55.5h-2.55c-.18,0-.3-.04-.36-.11s-.1-.18-.1-.32v-16.99c0-.27.12-.41.36-.41h7.23c2.05,0,3.65.41,4.79,1.24,1.14.83,1.72,2.01,1.72,3.57,0,.85-.16,1.59-.48,2.22s-.74,1.15-1.25,1.56c-.51.41-1.06.72-1.63.93-.14.03-.18.14-.1.31l3.22,7.42c.06.14.06.28,0,.4ZM120.69,84.28c.57-.43.85-1.08.85-1.95s-.27-1.54-.82-1.98c-.54-.44-1.29-.66-2.23-.66h-3.39c-.29,0-.43.12-.43.36v4.52c0,.24.1.36.31.36h3.22c1.09,0,1.92-.22,2.49-.65Z"/>
    <path class="cls-1" d="M127.14,77.26h11.65c.21,0,.31.12.31.36v1.85c0,.29-.14.43-.43.43h-7.93c-.27,0-.41.11-.41.34v4.21c0,.24.11.36.34.36h5.48c.24,0,.36.12.36.36v1.95c0,.1-.02.17-.07.22-.05.05-.14.07-.26.07h-5.53c-.21,0-.31.1-.31.29v4.47c0,.19.09.29.26.29h8.41c.26,0,.38.11.38.34v1.95c0,.1-.03.18-.1.25-.06.07-.17.11-.31.11h-11.75c-.3,0-.46-.14-.46-.43v-16.99c0-.27.12-.41.36-.41Z"/>
  </g>
  <g>
    <path class="cls-1" d="M33.83,96.93c0-.11.03-.2.1-.28s.17-.11.31-.11h13.5c.14,0,.25.04.31.11s.1.16.1.28v1.87c0,.22-.13.34-.38.34h-4.61c-.18,0-.26.08-.26.24v14.59c0,.27-.12.41-.36.41h-2.86c-.22,0-.34-.13-.34-.38v-14.56c0-.19-.09-.29-.26-.29h-4.83c-.27,0-.41-.11-.41-.34v-1.87Z"/>
    <path class="cls-1" d="M63.17,114.19c-.06.12-.17.18-.31.18h-2.93c-.24,0-.4-.13-.48-.38l-2.76-7.02c-.08-.21-.3-.31-.65-.31h-2.88c-.11,0-.19.03-.23.08-.04.06-.06.12-.06.18v6.94c0,.34-.18.5-.55.5h-2.55c-.18,0-.3-.04-.36-.11s-.1-.18-.1-.32v-16.99c0-.27.12-.41.36-.41h7.23c2.05,0,3.65.41,4.79,1.24,1.15.83,1.72,2.01,1.72,3.57,0,.85-.16,1.59-.48,2.22-.32.63-.74,1.15-1.25,1.56-.51.41-1.06.72-1.63.93-.14.03-.18.14-.1.31l3.22,7.42c.06.14.06.28,0,.4ZM58.88,103.56c.57-.43.85-1.08.85-1.95s-.27-1.54-.82-1.98c-.54-.44-1.29-.66-2.23-.66h-3.39c-.29,0-.43.12-.43.36v4.52c0,.24.1.36.31.36h3.22c1.09,0,1.92-.22,2.49-.65Z"/>
    <path class="cls-1" d="M63.83,114.2c-.06-.11-.05-.26.01-.43l6.06-16.8c.06-.16.13-.27.2-.34.07-.06.2-.1.37-.1h3c.34,0,.56.16.67.48l6.01,16.77c.05.13.05.26,0,.38-.05.13-.14.19-.26.19h-2.91c-.22,0-.37-.1-.43-.31l-1.39-3.89c-.02-.08-.04-.14-.08-.18-.04-.04-.12-.06-.23-.06h-6.25c-.14,0-.24.07-.29.22l-1.44,3.94c-.02.1-.06.17-.13.22s-.17.07-.3.07h-2.33c-.13,0-.22-.06-.28-.17ZM74,107.21c.21,0,.27-.13.19-.38l-2.31-6.42c-.05-.11-.1-.17-.17-.17s-.12.06-.17.19l-2.33,6.39c-.1.26-.03.38.19.38h4.59Z"/>
    <path class="cls-1" d="M81.81,114.37c-.32,0-.48-.17-.48-.5v-16.89c0-.16.04-.27.11-.34.07-.06.2-.1.37-.1h3.74c.41,0,.76,0,1.07.02,2.18.05,3.96.43,5.35,1.14,1.38.71,2.41,1.71,3.06,3,.66,1.29.99,2.84.99,4.65s-.35,3.51-1.05,4.85c-.7,1.35-1.75,2.38-3.17,3.09-1.42.71-3.2,1.07-5.35,1.07h-4.64ZM85.2,111.83h.6c1.47,0,2.69-.21,3.65-.62.96-.42,1.67-1.1,2.14-2.04s.7-2.19.7-3.75-.22-2.77-.67-3.69c-.45-.92-1.14-1.59-2.07-2.01-.93-.42-2.11-.62-3.53-.62h-.89c-.16,0-.24.11-.24.34v12.11c0,.19.1.29.31.29Z"/>
    <path class="cls-1" d="M97.86,96.54h11.65c.21,0,.31.12.31.36v1.85c0,.29-.14.43-.43.43h-7.93c-.27,0-.41.11-.41.34v4.21c0,.24.11.36.34.36h5.48c.24,0,.36.12.36.36v1.95c0,.1-.02.17-.07.22-.05.05-.14.07-.26.07h-5.53c-.21,0-.31.1-.31.29v4.47c0,.19.09.29.26.29h8.41c.26,0,.38.11.38.34v1.95c0,.1-.03.18-.1.25-.06.07-.17.11-.31.11h-11.75c-.3,0-.46-.14-.46-.43v-16.99c0-.27.12-.41.36-.41Z"/>
  </g>
</svg>